<?xml version="1.0" encoding="UTF-8" standalone="no"?>
<svg
   xmlns:dc="http://purl.org/dc/elements/1.1/"
   xmlns:cc="http://creativecommons.org/ns#"
   xmlns:rdf="http://www.w3.org/1999/02/22-rdf-syntax-ns#"
   xmlns:svg="http://www.w3.org/2000/svg"
   xmlns="http://www.w3.org/2000/svg"
   xmlns:sodipodi="http://sodipodi.sourceforge.net/DTD/sodipodi-0.dtd"
   xmlns:inkscape="http://www.inkscape.org/namespaces/inkscape"
   id="svg"
   width="16"
   height="16"
   viewBox="0 0 16 16"
   version="1.1"
   sodipodi:docname="image2vector.svg"
   inkscape:version="0.92.5 (2060ec1f9f, 2020-04-08)">
  <metadata
     id="metadata9">
    <rdf:RDF>
      <cc:Work
         rdf:about="">
        <dc:format>image/svg+xml</dc:format>
        <dc:type
           rdf:resource="http://purl.org/dc/dcmitype/StillImage" />
        <dc:title></dc:title>
      </cc:Work>
    </rdf:RDF>
  </metadata>
  <defs
     id="defs7" />
  <sodipodi:namedview
     pagecolor="#ffffff"
     bordercolor="#666666"
     borderopacity="1"
     objecttolerance="10"
     gridtolerance="10"
     guidetolerance="10"
     inkscape:pageopacity="0"
     inkscape:pageshadow="2"
     inkscape:window-width="2544"
     inkscape:window-height="1360"
     id="namedview5"
     showgrid="false"
     inkscape:zoom="35.176412"
     inkscape:cx="6.0522531"
     inkscape:cy="10.144729"
     inkscape:window-x="8"
     inkscape:window-y="35"
     inkscape:window-maximized="0"
     inkscape:current-layer="svg" />
  <g
     id="svgg"
     transform="matrix(0.04210035,0,0,0.04329888,-0.19251333,-1.1564742)">
    <path
       id="path0"
       d="m 40.234,27.772 c -16.54,4.53 -30.81,19.059 -34.875,35.509 -1.571,6.355 -1.575,251.43 -0.005,257.813 2.568,10.437 10.044,21.32 19.389,28.223 2.293,1.695 12.21,10.891 22.037,20.437 27.898,27.098 24.683,25.874 68.73,26.177 36.795,0.253 36.685,0.264 47.334,-5.078 7.625,-3.825 16.39,-12.737 20.259,-20.599 4.88,-9.917 5.156,-12.636 5.109,-50.332 l -0.043,-33.594 -19.799,-19.14 c -10.89,-10.528 -19.83,-19.756 -19.866,-20.508 -0.061,-1.263 -1.524,-1.367 -19.207,-1.367 h -19.141 v -41.196 -41.196 l 7.241,7.212 7.242,7.211 h 31.821 31.821 v -33.236 c 0,-50.684 1.086,-47.804 -29.626,-78.593 C 148.094,54.928 136.992,43.665 133.984,40.486 127.961,34.12 120.86,29.843 112.85,27.757 106.515,26.106 46.269,26.119 40.234,27.772 m 158.402,144.689 c 0.21,134.766 0.328,146.226 1.556,150.189 3.209,10.361 10.137,20.059 19.014,26.617 2.255,1.666 11.425,10.163 20.377,18.882 30.306,29.516 26.505,28.118 75.518,27.787 34.253,-0.232 34.543,-0.247 39.196,-2.094 13.339,-5.295 22.346,-14.448 27.673,-28.124 l 2.014,-5.171 0.119,-146.484 0.12,-146.485 -19.809,-19.14 C 353.52,37.91 344.589,28.682 344.569,27.93 c -0.035,-1.28 -2.135,-1.367 -32.85,-1.367 h -32.813 v 8.35 8.35 l -6.928,-6.592 c -4.413,-4.199 -6.966,-7.231 -7.032,-8.351 l -0.102,-1.757 H 231.627 198.41 l 0.226,145.898 M 111.677,38.2 c 12.573,4.404 22.167,14.622 25.407,27.062 0.975,3.743 1.197,10.156 1.197,34.512 v 29.914 H 115.558 92.835 l 0.559,-14.686 c 0.61,-16.023 -0.032,-20.49 -3.725,-25.917 -6.254,-9.19 -22.495,-8.641 -27.727,0.939 -1.707,3.124 -2.672,193.385 -1.02,201.069 1.507,7.012 6.956,10.47 16.5,10.47 12.853,-10e-4 17.036,-9.212 15.874,-34.961 l -0.537,-11.914 h 22.761 22.761 v 29.913 c 0,33.034 -0.265,35.404 -4.855,43.426 -6.284,10.984 -17.493,18.28 -30.301,19.724 C 89.562,349.28 47.53,348.228 41.289,346.203 28.004,341.892 17.691,330.602 14.926,317.344 13.766,311.782 13.703,73.983 14.86,67.883 17.206,55.511 27.973,42.923 39.877,38.634 c 9.212,-3.319 62.643,-3.642 71.8,-0.434 m 143.011,125.697 v 127.959 l 1.757,3.441 c 4.849,9.489 25.062,9.477 30.64,-0.019 1.575,-2.68 1.588,-3.649 1.791,-131.02 l 0.205,-128.32 h 23.038 23.037 L 335.15,171.68 c -0.007,162.623 0.717,152.484 -11.775,164.976 -10.216,10.216 -17.009,11.769 -51.5,11.769 -38.609,0 -49.729,-3.93 -58.768,-20.769 -4.718,-8.787 -4.489,-1.022 -4.502,-152.851 L 208.594,35.938 h 23.047 23.047 v 127.959"
       inkscape:connector-curvature="0"
       style="fill:#000000;fill-rule:evenodd;stroke:none" />
  </g>
</svg>
